#!OML:ASF F:\VICON\USERDATA\INSTALL\rory3\rory3.ASF
:FULLY-SPECIFIED
:DEGREES
2727
root -0.871679 18.1991 2.90476 0.777441 -10.7601 0.0925939
lowerback 7.70834 -1.13064 -3.28214
upperback 0.432574 -1.76531 0.677801
thorax -3.75404 -0.81629 2.73714
lowerneck -11.175 -8.39583 -10.7219
upperneck 13.4536 -11.0043 8.95078
head 7.04538 -5.17818 3.51454
rclavicle 3.84648e-014 9.59136e-015
rhumerus -24.438 -23.0365 -46.8256
rradius 21.2516
rwrist -2.63891
rhand -17.6182 5.28092
rfingers 7.12502
rthumb 8.6388 -24.5223
lclavicle 3.84648e-014 9.59136e-015
lhumerus -34.2405 1.12234 54.4057
lradius 47.1401
lwrist 18.5261
lhand -22.3027 21.9962
lfingers 7.12502
lthumb 4.11648 51.9362
rfemur -13.7687 25.4431 4.75982
rtibia 25.6551
rfoot -19.3652 -10.3573
rtoes -12.5821
lfemur -0.720584 -10.1344 -6.56225
ltibia 18.3275
lfoot -18.806 22.2752
ltoes -9.94549
2728
root -0.890085 18.1895 2.90194 0.758152 -10.8794 -0.0127441
lowerback 7.82506 -1.05812 -3.11628
upperback 0.436013 -1.65642 0.71891
thorax -3.82691 -0.763319 2.67839
lowerneck -11.3489 -8.34842 -10.7034
upperneck 13.5749 -10.9176 8.85886
head 7.09917 -5.13675 3.48563
rclavicle 2.09035e-014 -5.8393e-015
rhumerus -24.4087 -22.4839 -47.2061
rradius 21.5678
rwrist -2.77797
rhand -18.1836 4.95507
rfingers 7.12502
rthumb 8.0931 -24.87
lclavicle 2.09035e-014 -5.8393e-015
lhumerus -34.2783 1.3544 54.4266
lradius 47.1594
lwrist 18.3268
lhand -22.5774 22.0263
lfingers 7.12502
lthumb 3.85123 51.9713
rfemur -14.1194 25.402 4.9573
rtibia 26.2783
rfoot -19.9099 -9.55166
rtoes -12.4654
lfemur -0.655021 -10.074 -6.39268
ltibia 18.3458
lfoot -18.7987 22.3529
ltoes -10.0543
2729
root -0.911086 18.185 2.90624 0.742569 -10.9298 0.0511024
lowerback 7.85819 -0.998653 -3.10179
upperback 0.438926 -1.57747 0.707463
thorax -3.84853 -0.724088 2.65081
lowerneck -11.6322 -8.32898 -10.6585
upperneck 13.8283 -10.8605 8.69772
head 7.21233 -5.10981 3.42179
rclavicle 1.20575e-014 -4.09993e-015
rhumerus -24.3688 -21.8556 -47.6456
rradius 21.9047
rwrist -2.90577
rhand -18.6593 4.32747
rfingers 7.12502
rthumb 7.63397 -25.5148
lclavicle 1.20575e-014 -4.09993e-015
lhumerus -34.3661 1.61285 54.4156
lradius 47.2215
lwrist 18.2211
lhand -22.8222 22.2389
lfingers 7.12502
lthumb 3.61482 52.188
rfemur -14.3962 25.2799 5.00057
rtibia 26.8064
rfoot -20.2325 -8.6356
rtoes -12.2631
lfemur -0.611962 -10.3503 -6.45062
ltibia 18.3752
lfoot -19.059 22.6401
ltoes -9.64397
2730
root -0.936688 18.1809 2.91566 0.676355 -10.9606 0.124444
lowerback 7.87679 -0.961574 -3.11096
upperback 0.419032 -1.53062 0.686903
thorax -3.88315 -0.699886 2.63043
lowerneck -11.7491 -8.2803 -10.6683
upperneck 14.0574 -10.78 8.60314
head 7.29371 -5.07474 3.39728
rclavicle -4.77611e-014 6.4605e-016
rhumerus -24.3456 -21.3713 -48.0401
rradius 22.1433
rwrist -2.84633
rhand -18.5781 4.18015
rfingers 7.12502
rthumb 7.71238 -25.6592
lclavicle -4.77611e-014 6.4605e-016
lhumerus -34.5157 1.75303 54.4198
lradius 47.2821
lwrist 18.5842
lhand -23.374 22.1804
lfingers 7.12502
lthumb 3.08192 52.1379
rfemur -14.5734 25.2916 5.07042
rtibia 27.252
rfoot -20.5052 -7.70881
rtoes -12.0991
lfemur -0.509991 -10.7123 -6.53301
ltibia 18.425
lfoot -19.342 23.0026
ltoes -9.42087
2731
root -0.965243 18.1713 2.91985 0.663957 -10.9822 0.0605525
lowerback 7.87655 -0.944267 -3.01718
upperback 0.406452 -1.49783 0.724457
thorax -3.89964 -0.684494 2.61334
lowerneck -11.7165 -8.19256 -10.6944
upperneck 14.0778 -10.6519 8.56336
head 7.28081 -5.01891 3.40559
rclavicle 1.58698e-015 -6.17475e-015
rhumerus -24.1906 -21.1329 -48.3612
rradius 22.2544
rwrist -2.72066
rhand -18.3191 4.24881
rfingers 7.12502
rthumb 7.96241 -25.5812
lclavicle 1.58698e-015 -6.17475e-015
lhumerus -34.6059 2.00978 54.4093
lradius 47.2533
lwrist 18.9016
lhand -24.7481 22.3332
lfingers 7.12502
lthumb 1.75489 52.3058
rfemur -14.8555 25.5415 5.24856
rtibia 27.6511
rfoot -20.7464 -6.85105
rtoes -12.2402
lfemur -0.475156 -10.8369 -6.4022
ltibia 18.4511
lfoot -19.2736 23.2472
ltoes -9.61578
2732
root -0.994949 18.1604 2.92076 0.677582 -11.0187 0.0911374
lowerback 7.87245 -0.901904 -3.0228
upperback 0.406917 -1.4413 0.73727
thorax -3.90016 -0.656247 2.62363
lowerneck -11.8039 -8.10092 -10.6849
upperneck 14.096 -10.5134 8.53017
head 7.28543 -4.95225 3.40761
rclavicle -1.37239e-014 -5.77718e-015
rhumerus -24.0319 -20.9216 -48.6585
rradius 22.3855
rwrist -2.67617
rhand -18.4154 4.23038
rfingers 7.12502
rthumb 7.86941 -25.6032
lclavicle -1.37239e-014 -5.77718e-015
lhumerus -34.7037 2.36752 54.3526
lradius 47.2934
lwrist 18.9387
lhand -25.7416 22.8059
lfingers 7.12502
lthumb 0.795271 52.7842
rfemur -15.1511 25.8138 5.28465
rtibia 27.976
rfoot -20.9061 -5.98553
rtoes -12.3346
lfemur -0.529271 -10.8922 -6.36635
ltibia 18.5458
lfoot -19.029 23.5797
ltoes -10.3831
2733
root -1.02649 18.1511 2.92403 0.656837 -11.052 0.121341
lowerback 7.9647 -0.855729 -3.05874
upperback 0.364759 -1.3847 0.778058
thorax -3.99769 -0.624734 2.68308
lowerneck -11.9659 -8.03738 -10.7415
upperneck 14.2448 -10.3974 8.46532
head 7.34971 -4.89967 3.40371
rclavicle -2.42051e-014 7.45443e-016
rhumerus -23.9673 -20.5895 -48.9146
rradius 22.574
rwrist -2.76973
rhand -18.599 4.47255
rfingers 7.12502
rthumb 7.69223 -25.3675
lclavicle -2.42051e-014 7.45443e-016
lhumerus -34.9635 2.65419 54.319
lradius 47.4089
lwrist 18.9331
lhand -25.8526 22.9165
lfingers 7.12502
lthumb 0.688067 52.8951
rfemur -15.2681 26.0556 5.36068
rtibia 28.2383
rfoot -21.0636 -5.20194
rtoes -11.9088
lfemur -0.565165 -11.1933 -6.38074
ltibia 18.7826
lfoot -19.1714 23.9862
ltoes -10.7202
2734
root -1.06191 18.1436 2.92899 0.673007 -11.0205 0.0857493
lowerback 7.97169 -0.82838 -2.99622
upperback 0.33529 -1.34285 0.785202
thorax -4.03635 -0.603926 2.65132
lowerneck -12.0313 -7.98682 -10.6691
upperneck 14.295 -10.3239 8.38644
head 7.36159 -4.86513 3.37338
rclavicle 2.36367e-014 -3.60297e-015
rhumerus -23.94 -20.1456 -49.2937
rradius 22.8418
rwrist -2.98221
rhand -18.6901 4.58406
rfingers 7.12502
rthumb 7.60424 -25.2592
lclavicle 2.36367e-014 -3.60297e-015
lhumerus -35.1867 2.88466 54.2103
lradius 47.5173
lwrist 18.9389
lhand -25.8533 22.7314
lfingers 7.12502
lthumb 0.687448 52.71
rfemur -15.336 26.3672 5.54128
rtibia 28.4756
rfoot -21.2189 -4.63077
rtoes -11.5746
lfemur -0.632009 -11.4444 -6.28921
ltibia 19.0331
lfoot -19.3842 24.2677
ltoes -11.0377
